<svg width="38.523926" height="33.000000" viewBox="0 0 38.5239 33" fill="none" xmlns="http://www.w3.org/2000/svg" xmlns:xlink="http://www.w3.org/1999/xlink">
	<desc>
			Created with Pixso.
	</desc>
	<defs/>
	<path id="Vector" d="M0 4.69C0 2.1 2.1 0 4.69 0L33.83 0C36.42 0 38.52 2.1 38.52 4.69L38.52 13.82C38.52 16.42 36.42 18.52 33.83 18.52L4.69 18.52C2.1 18.52 0 16.42 0 13.82L0 4.69Z" fill="#111827" fill-opacity="1.000000" fill-rule="evenodd"/>
	<path id="Vector" d="M0 12.99C0 8.75 3.66 5.43 7.89 5.87L34.31 8.58C36.7 8.82 38.52 10.84 38.52 13.24L38.52 22.71C38.52 25.31 36.42 27.41 33.83 27.41L4.69 27.41C2.1 27.41 0 25.31 0 22.71L0 12.99Z" fill="#F70101" fill-opacity="1.000000" fill-rule="evenodd"/>
	<path id="Vector" d="M0 22.99C0 20.68 1.67 18.72 3.95 18.36L33.09 13.7C35.94 13.25 38.52 15.45 38.52 18.34L38.52 28.3C38.52 30.93 36.36 33.04 33.74 32.99L4.6 32.43C2.04 32.38 0 30.3 0 27.74L0 22.99Z" fill="#BEBEBE" fill-opacity="1.000000" fill-rule="nonzero"/>
	<circle id="Ellipse 7" cx="29.386719" cy="24.200684" r="5.679812" fill="#000000" fill-opacity="1.000000"/>
	<path id="Union" d="M29.0938 26.1318L32.3179 23.2832C32.4453 23.1709 32.457 22.9766 32.3447 22.8491L32.1411 22.6191C32.0288 22.4917 31.8345 22.48 31.7075 22.5923L29.1562 24.8462C29.0317 24.9561 28.8428 24.9478 28.729 24.8271L27.5571 23.5859C27.4409 23.4624 27.2461 23.4565 27.123 23.5732L26.8994 23.7842C26.7759 23.9009 26.7705 24.0952 26.8867 24.2188L28.5498 25.98L28.6602 26.105C28.7725 26.2319 28.9668 26.2441 29.0938 26.1318Z" clip-rule="evenodd" fill="#F9FAFB" fill-opacity="1.000000" fill-rule="evenodd"/>
</svg>
